<svg width="34" height="28" viewBox="0 0 34 28" fill="none" xmlns="http://www.w3.org/2000/svg">
<path d="M1.41666 3.81665L1.51692 3.70508L1.41666 3.81665L15.9173 16.8474V24.8746H10.9128C10.3163 24.8746 9.82529 25.3455 9.82529 25.9354C9.82529 26.5253 10.3163 26.9962 10.9128 26.9962H23.097C23.6934 26.9962 24.1845 26.5253 24.1845 25.9354C24.1845 25.3455 23.6934 24.8746 23.097 24.8746H18.0924V16.731L32.5779 3.82143C33.1159 3.34201 33.2941 2.6019 33.0283 1.93841C32.7628 1.27565 32.119 0.85 31.3926 0.85H2.60723C1.88253 0.85 1.23924 1.2743 0.972917 1.93508C0.706271 2.59665 0.881951 3.33613 1.41666 3.81665ZM16.9414 14.883L3.68625 2.97152H30.3071L16.9414 14.883Z" fill="#75B6F2" stroke="#75B6F2" stroke-width="0.3"/>
</svg>
