<svg width="29" height="29" viewBox="0 0 29 29" fill="none" xmlns="http://www.w3.org/2000/svg">
<path d="M20 8C20.2652 8 20.5196 7.90781 20.7071 7.74372C20.8946 7.57962 21 7.35706 21 7.125V1.875C21 1.64294 20.8946 1.42038 20.7071 1.25628C20.5196 1.09219 20.2652 1 20 1C19.7348 1 19.4804 1.09219 19.2929 1.25628C19.1054 1.42038 19 1.64294 19 1.875V7.125C19 7.35706 19.1054 7.57962 19.2929 7.74372C19.4804 7.90781 19.7348 8 20 8Z" fill="#75B6F2"/>
<path d="M9 1C6.053 1 4 5.06543 4 8.71429C4 11.125 4.935 12.9668 6.592 13.8809L6.069 25.4851C6.05443 25.8101 6.10821 26.1346 6.22712 26.439C6.34603 26.7434 6.52759 27.0215 6.76089 27.2565C6.99418 27.4914 7.27438 27.6784 7.5846 27.8062C7.89482 27.934 8.22866 27.9999 8.566 28H9.434C9.77159 28.0003 10.1058 27.9347 10.4163 27.8071C10.7269 27.6795 11.0075 27.4925 11.2411 27.2575C11.4747 27.0225 11.6565 26.7443 11.7756 26.4397C11.8947 26.1351 11.9486 25.8104 11.934 25.4851L11.411 13.8809C13.065 12.9668 14 11.125 14 8.71429C14 5.06543 11.947 1 9 1ZM10.026 12.3834C9.82913 12.4553 9.6608 12.5852 9.54499 12.7547C9.42917 12.9242 9.37179 13.1246 9.381 13.3274L9.933 25.569C9.93583 25.634 9.925 25.6989 9.90114 25.7598C9.87729 25.8206 9.84091 25.8762 9.79419 25.9231C9.74748 25.9701 9.69139 26.0074 9.62932 26.0329C9.56725 26.0584 9.50047 26.0715 9.433 26.0714H8.566C8.49853 26.0715 8.43175 26.0584 8.36968 26.0329C8.30761 26.0074 8.25152 25.9701 8.20481 25.9231C8.1581 25.8762 8.12172 25.8206 8.09786 25.7598C8.074 25.6989 8.06317 25.634 8.066 25.569L8.618 13.3274C8.62721 13.1246 8.56983 12.9242 8.45401 12.7547C8.3382 12.5852 8.16987 12.4553 7.973 12.3834C6.7 11.9196 6 10.6159 6 8.71429C6 5.65268 7.678 2.92857 9 2.92857C10.322 2.92857 12 5.65268 12 8.71429C12 10.6159 11.3 11.9196 10.026 12.3834Z" fill="#75B6F2"/>
<path d="M24 1C23.7348 1 23.4804 1.10159 23.2929 1.28243C23.1054 1.46327 23 1.70854 23 1.96429V8.71429C23.0015 9.30982 22.8109 9.89107 22.4545 10.3774C22.0981 10.8638 21.5936 11.2312 21.011 11.4287C20.8129 11.4967 20.6425 11.6237 20.5243 11.7914C20.4062 11.959 20.3465 12.1586 20.354 12.3612C20.354 12.3709 20.933 25.5719 20.933 25.5719C20.9358 25.6369 20.925 25.7018 20.9011 25.7627C20.8773 25.8235 20.8409 25.8791 20.7942 25.926C20.7475 25.973 20.6914 26.0103 20.6293 26.0358C20.5672 26.0613 20.5005 26.0744 20.433 26.0743H19.565C19.4975 26.0744 19.4308 26.0613 19.3687 26.0358C19.3066 26.0103 19.2505 25.973 19.2038 25.926C19.1571 25.8791 19.1207 25.8235 19.0969 25.7627C19.073 25.7018 19.0622 25.6369 19.065 25.5719C19.065 25.5719 19.646 12.3689 19.645 12.3612C19.6508 12.1584 19.5893 11.9591 19.4695 11.7922C19.3497 11.6254 19.1779 11.4998 18.979 11.4336C18.5666 11.2937 18.1911 11.0682 17.879 10.773C17.3146 10.2263 16.9984 9.48576 17 8.71429V1.96429C17 1.70854 16.8946 1.46327 16.7071 1.28243C16.5196 1.10159 16.2652 1 16 1C15.7348 1 15.4804 1.10159 15.2929 1.28243C15.1054 1.46327 15 1.70854 15 1.96429V8.71429C15.0011 9.99672 15.5302 11.2263 16.471 12.1327C16.8164 12.4557 17.2073 12.7303 17.632 12.9485L17.069 25.4842C17.0543 25.8092 17.108 26.1338 17.2268 26.4384C17.3457 26.7429 17.5272 27.0211 17.7605 27.2561C17.9938 27.4912 18.2741 27.6783 18.5844 27.8061C18.8946 27.934 19.2286 27.9999 19.566 28H20.434C20.7716 28.0003 21.1058 27.9347 21.4163 27.8071C21.7269 27.6795 22.0075 27.4925 22.2411 27.2575C22.4747 27.0225 22.6565 26.7443 22.7756 26.4397C22.8947 26.1351 22.9486 25.8104 22.934 25.4851L22.368 12.9571C23.1641 12.5461 23.8295 11.9343 24.293 11.187C24.7566 10.4397 25.001 9.58506 25 8.71429V1.96429C25 1.70854 24.8946 1.46327 24.7071 1.28243C24.5196 1.10159 24.2652 1 24 1Z" fill="#75B6F2"/>
</svg>
