<svg width="20" height="20" viewBox="0 0 20 20" fill="none" xmlns="http://www.w3.org/2000/svg">
<path d="M9.8365 18.1816C9.89069 18.1816 9.94487 18.1816 9.99943 18.1813C11.2821 18.1844 12.4673 18.1519 13.6199 18.0817C14.6767 18.0174 15.6412 17.6522 16.4096 17.0258C17.1509 16.4213 17.6572 15.6039 17.9143 14.5966C18.138 13.7197 18.1498 12.8589 18.1612 12.0263C18.1694 11.429 18.1779 10.7211 18.1797 10.0012C18.1779 9.27837 18.1694 8.5705 18.1612 7.97312C18.1498 7.14065 18.138 6.27985 17.9143 5.40281C17.6572 4.39556 17.1509 3.5782 16.4096 2.9737C15.6412 2.34723 14.6767 1.98206 13.6198 1.91776C12.4672 1.84772 11.2818 1.81501 9.99631 1.81814C8.71323 1.81539 7.52841 1.84772 6.3758 1.91776C5.31907 1.98206 4.35449 2.34723 3.58617 2.9737C2.84468 3.5782 2.33854 4.39556 2.08148 5.40281C1.85775 6.27972 1.84589 7.14065 1.83453 7.97312C1.82629 8.5705 1.81767 9.27837 1.81605 9.99823V10.0012C1.81767 10.7211 1.82629 11.429 1.83453 12.0263C1.84589 12.8588 1.85762 13.7196 2.08148 14.5966C2.33854 15.6039 2.84468 16.4213 3.58617 17.0258C4.35449 17.6522 5.31907 18.0174 6.3758 18.0817C7.47959 18.1489 8.61348 18.1816 9.8365 18.1816ZM9.99943 16.9029C8.73758 16.9059 7.57897 16.8741 6.45346 16.8057C5.65442 16.7571 4.96163 16.4978 4.39407 16.035C3.86945 15.6071 3.50813 15.0169 3.32024 14.2805C3.13396 13.5506 3.12322 12.7668 3.11286 12.0089C3.10475 11.4155 3.09626 10.7126 3.09451 9.99973C3.09626 9.28674 3.10475 8.58399 3.11286 7.9906C3.12322 7.23266 3.13396 6.44889 3.32024 5.71879C3.50813 4.98246 3.86945 4.39219 4.39407 3.96435C4.96163 3.50167 5.65442 3.24237 6.45346 3.1938C7.57897 3.12526 8.73758 3.09368 9.99643 3.09642C11.258 3.09343 12.4168 3.12526 13.5423 3.1938C14.3413 3.24237 15.0341 3.50167 15.6017 3.96435C16.1263 4.39219 16.4876 4.98246 16.6755 5.71879C16.8618 6.44889 16.8725 7.23254 16.8829 7.9906C16.891 8.58449 16.8995 9.28774 16.9012 10.0012C16.8995 10.7116 16.891 11.415 16.8829 12.0089C16.8725 12.7668 16.8618 13.5506 16.6755 14.2805C16.4876 15.0169 16.1263 15.6071 15.6017 16.035C15.0341 16.4977 14.3413 16.757 13.5423 16.8055C12.4168 16.8741 11.2578 16.906 9.99943 16.9029ZM10.0299 13.9948C12.2327 13.9948 14.0251 12.2026 14.0251 9.99973C14.0251 7.79684 12.2327 6.00469 10.0299 6.00469C7.82693 6.00469 6.03471 7.79684 6.03471 9.99973C6.03471 12.2026 7.82693 13.9948 10.0299 13.9948ZM10.0299 7.2831C11.5278 7.2831 12.7466 8.50184 12.7466 9.99973C12.7466 11.4976 11.5278 12.7164 10.0299 12.7164C8.53183 12.7164 7.31317 11.4976 7.31317 9.99973C7.31317 8.50184 8.53183 7.2831 10.0299 7.2831ZM5.58725 4.72628C6.11674 4.72628 6.54609 5.15549 6.54609 5.68509C6.54609 6.21468 6.11674 6.64389 5.58725 6.64389C5.05764 6.64389 4.62841 6.21468 4.62841 5.68509C4.62841 5.15549 5.05764 4.72628 5.58725 4.72628Z" fill="white"/>
</svg>
