<svg width="20" height="20" viewBox="0 0 20 20" fill="none" xmlns="http://www.w3.org/2000/svg">
<path d="M9.9987 18.9333C9.91659 18.9337 9.83522 18.9177 9.75938 18.8862C9.68353 18.8547 9.61474 18.8084 9.55704 18.75L4.75704 13.95C3.71903 12.9131 3.0119 11.5916 2.7251 10.1527C2.43831 8.71376 2.58474 7.22212 3.14586 5.86646C3.70699 4.51079 4.6576 3.35201 5.87743 2.53672C7.09726 1.72143 8.5315 1.28625 9.9987 1.28625C11.4659 1.28625 12.9001 1.72143 14.12 2.53672C15.3398 3.35201 16.2904 4.51079 16.8515 5.86646C17.4127 7.22212 17.5591 8.71376 17.2723 10.1527C16.9855 11.5916 16.2784 12.9131 15.2404 13.95L10.4404 18.75C10.3827 18.8084 10.3139 18.8547 10.238 18.8862C10.1622 18.9177 10.0808 18.9337 9.9987 18.9333ZM9.9987 2.54167C8.77968 2.54252 7.58825 2.90465 6.57494 3.58231C5.56163 4.25998 4.7719 5.22276 4.30552 6.34904C3.83913 7.47532 3.71702 8.71456 3.9546 9.91021C4.19219 11.1059 4.77881 12.2043 5.64037 13.0667L9.9987 17.425L14.357 13.0667C15.2186 12.2043 15.8052 11.1059 16.0428 9.91021C16.2804 8.71456 16.1583 7.47532 15.6919 6.34904C15.2255 5.22276 14.4358 4.25998 13.4225 3.58231C12.4092 2.90465 11.2177 2.54252 9.9987 2.54167Z" fill="white"/>
<path d="M10 11.4583C9.38194 11.4583 8.77775 11.275 8.26384 10.9317C7.74994 10.5883 7.3494 10.1002 7.11288 9.5292C6.87635 8.95818 6.81447 8.32985 6.93505 7.72366C7.05563 7.11747 7.35325 6.56065 7.79029 6.12361C8.22733 5.68657 8.78415 5.38894 9.39034 5.26836C9.99654 5.14778 10.6249 5.20967 11.1959 5.44619C11.7669 5.68272 12.255 6.08325 12.5983 6.59716C12.9417 7.11106 13.125 7.71525 13.125 8.33332C13.125 9.16212 12.7958 9.95698 12.2097 10.543C11.6237 11.1291 10.8288 11.4583 10 11.4583ZM10 6.45832C9.62916 6.45832 9.26665 6.56828 8.95831 6.77431C8.64997 6.98034 8.40964 7.27317 8.26773 7.61579C8.12581 7.9584 8.08868 8.3354 8.16103 8.69911C8.23338 9.06283 8.41195 9.39692 8.67418 9.65914C8.9364 9.92137 9.27049 10.0999 9.63421 10.1723C9.99792 10.2446 10.3749 10.2075 10.7175 10.0656C11.0601 9.92368 11.353 9.68336 11.559 9.37501C11.765 9.06667 11.875 8.70416 11.875 8.33332C11.875 7.83604 11.6775 7.35912 11.3258 7.00749C10.9742 6.65586 10.4973 6.45832 10 6.45832Z" fill="white"/>
</svg>
