<svg width="28" height="19" viewBox="0 0 28 19" fill="none" xmlns="http://www.w3.org/2000/svg">
<path d="M27.787 17.4008L27.8288 17.3734L27.787 17.4008C27.8867 17.5527 27.9427 17.728 27.9493 17.9083C27.956 18.0887 27.9129 18.2674 27.8246 18.4259C27.7364 18.5844 27.6061 18.7168 27.4474 18.8091C27.2887 18.9013 27.1075 18.95 26.9228 18.95H1.07702C0.893501 18.95 0.713387 18.9019 0.555383 18.8107C0.397385 18.7195 0.267306 18.5885 0.178547 18.4316C0.0897925 18.2746 0.0455555 18.0974 0.0503525 17.9181C0.0551495 17.7389 0.10881 17.5641 0.205851 17.4119L10.9749 0.523162L10.9749 0.523154C11.0671 0.378509 11.1954 0.259118 11.3478 0.176303C11.5002 0.0934858 11.6717 0.05 11.8461 0.05C12.0205 0.05 12.1919 0.0934857 12.3444 0.176303C12.4968 0.259118 12.6251 0.378509 12.7173 0.523154L12.759 0.496566L12.7173 0.523154L15.11 4.2771L15.1105 4.27778C15.1844 4.38976 15.2349 4.515 15.2589 4.64618C15.283 4.77737 15.2802 4.91193 15.2506 5.04204C15.2211 5.17216 15.1654 5.29527 15.0868 5.40418C15.0082 5.5131 14.9082 5.60567 14.7927 5.67644C14.6771 5.74721 14.5482 5.79476 14.4136 5.81627C14.279 5.83779 14.1414 5.83283 14.0088 5.8017C13.8762 5.77056 13.7512 5.71388 13.6413 5.63501C13.5314 5.55613 13.4386 5.45665 13.3684 5.34239L13.3679 5.3417L11.8883 3.02034L11.8461 2.95421L11.8039 3.02033L2.97782 16.862L2.92879 16.9389H3.01997H24.9504H25.043L24.9922 16.8615L18.3619 6.75379L18.3195 6.68914L18.278 6.75433L14.3931 12.848C14.249 13.0742 14.0188 13.2352 13.7532 13.2953C13.6216 13.3251 13.4854 13.3291 13.3522 13.3073C13.2191 13.2855 13.0917 13.2381 12.9773 13.1681C12.8629 13.098 12.7637 13.0066 12.6855 12.899C12.6073 12.7915 12.5514 12.67 12.5211 12.5414C12.4909 12.4129 12.4867 12.2797 12.5089 12.1496C12.5312 12.0195 12.5793 11.8949 12.6507 11.7829L17.4364 4.27689C17.528 4.13319 17.6553 4.0144 17.8065 3.93167C17.9575 3.84902 18.1274 3.80506 18.3005 3.80391C18.473 3.80699 18.6423 3.85065 18.794 3.93115C18.9457 4.01164 19.0753 4.12659 19.1721 4.26626C19.1722 4.26643 19.1723 4.26659 19.1724 4.26675L27.787 17.4008Z" fill="#75B6F2" stroke="#EAF6FF" stroke-width="0.1"/>
</svg>
