<svg width="22" height="22" viewBox="0 0 22 22" fill="none" xmlns="http://www.w3.org/2000/svg">
<path d="M11.5502 19.5491H3.08864C2.47164 19.5486 1.88004 19.2919 1.44375 18.8353C1.00747 18.3787 0.762167 17.7596 0.761719 17.1139V16.2283C0.76351 14.6436 1.36584 13.1243 2.43657 12.0038C3.5073 10.8832 4.95901 10.2529 6.47326 10.251H8.16557C9.67981 10.2529 11.1315 10.8832 12.2023 12.0038C13.273 13.1243 13.8753 14.6436 13.8771 16.2283V17.1139C13.8767 17.7596 13.6314 18.3787 13.1951 18.8353C12.7588 19.2919 12.1672 19.5486 11.5502 19.5491ZM6.47326 11.5793C5.2955 11.5807 4.16636 12.0709 3.33356 12.9425C2.50075 13.8141 2.03229 14.9958 2.03095 16.2283V17.1139C2.0314 17.4073 2.14298 17.6886 2.34123 17.8961C2.53949 18.1035 2.80826 18.2203 3.08864 18.2208H11.5502C11.8306 18.2203 12.0993 18.1035 12.2976 17.8961C12.4958 17.6886 12.6074 17.4073 12.6079 17.1139V16.2283C12.6065 14.9958 12.1381 13.8141 11.3053 12.9425C10.4725 12.0709 9.34333 11.5807 8.16557 11.5793H6.47326Z" fill="#4F5864"/>
<path d="M18.9133 19.5494H13.8364C13.4263 19.5497 13.0236 19.4357 12.6696 19.2191C12.5281 19.1282 12.4264 18.9829 12.3861 18.8143C12.3459 18.6458 12.3703 18.4675 12.4542 18.3176C12.5381 18.1677 12.6748 18.0581 12.835 18.0125C12.9951 17.9668 13.166 17.9886 13.311 18.0732C13.4708 18.1695 13.6519 18.2205 13.8364 18.2211H18.9133C19.0508 18.2223 19.1871 18.1945 19.314 18.1392C19.4409 18.084 19.5559 18.0025 19.652 17.8997C19.7534 17.7983 19.8339 17.6763 19.8888 17.5413C19.9436 17.4063 19.9716 17.2609 19.971 17.1142C19.9698 16.3696 19.7579 15.6421 19.3621 15.0234C18.9663 14.4047 18.4042 13.9225 17.7469 13.6377C17.0895 13.3528 16.3663 13.2781 15.6684 13.4229C14.9705 13.5678 14.3292 13.9256 13.8254 14.4514C13.7055 14.5763 13.5435 14.6468 13.3744 14.648C13.2052 14.6492 13.0424 14.5808 12.9209 14.4576C12.8619 14.3972 12.8149 14.3253 12.7826 14.2458C12.7503 14.1663 12.7333 14.081 12.7327 13.9946C12.7321 13.9083 12.7478 13.8226 12.7789 13.7427C12.81 13.6627 12.856 13.59 12.9141 13.5287L13.3626 13.998L12.9183 13.5243C13.5983 12.8096 14.4655 12.322 15.4103 12.1233C16.3551 11.9246 17.335 12.0237 18.2259 12.4081C19.1169 12.7924 19.8788 13.4447 20.4154 14.2825C20.952 15.1202 21.2391 16.1057 21.2403 17.1142C21.2376 17.7592 20.9916 18.377 20.5558 18.8331C20.12 19.2892 19.5297 19.5466 18.9133 19.5494Z" fill="#4F5864"/>
<path d="M7.32122 11.3209C6.44261 11.3209 5.58374 11.0608 4.8532 10.5734C4.12267 10.0859 3.55329 9.39316 3.21706 8.58261C2.88083 7.77207 2.79286 6.88016 2.96427 6.01969C3.13567 5.15922 3.55876 4.36882 4.18003 3.74845C4.8013 3.12809 5.59284 2.70561 6.45456 2.53445C7.31629 2.3633 8.20949 2.45114 9.02121 2.78688C9.83294 3.12262 10.5267 3.69118 11.0149 4.42065C11.503 5.15012 11.7635 6.00775 11.7635 6.88508C11.7622 8.06113 11.2937 9.18863 10.4609 10.0202C9.62811 10.8518 8.49898 11.3196 7.32122 11.3209ZM7.32122 3.71661C6.69364 3.71661 6.08016 3.90244 5.55835 4.25059C5.03654 4.59875 4.62984 5.0936 4.38968 5.67256C4.14951 6.25152 4.08668 6.8886 4.20911 7.50322C4.33154 8.11784 4.63375 8.68241 5.07751 9.12553C5.52127 9.56865 6.08666 9.87042 6.70218 9.99267C7.3177 10.1149 7.9557 10.0522 8.5355 9.81237C9.1153 9.57256 9.61087 9.16644 9.95953 8.64539C10.3082 8.12434 10.4943 7.51175 10.4943 6.88508C10.4932 6.04509 10.1585 5.23983 9.56368 4.64587C8.96886 4.05191 8.16242 3.71773 7.32122 3.71661Z" fill="#4F5864"/>
<path d="M16.3762 13.3241C15.7486 13.3241 15.1351 13.1353 14.6133 12.7816C14.0915 12.4279 13.6848 11.9251 13.4447 11.3369C13.2045 10.7486 13.1417 10.1014 13.2641 9.47691C13.3865 8.85244 13.6887 8.27884 14.1325 7.82862C14.5763 7.37841 15.1417 7.07181 15.7572 6.9476C16.3727 6.82339 17.0107 6.88714 17.5905 7.13079C18.1703 7.37444 18.6659 7.78706 19.0145 8.31645C19.3632 8.84584 19.5493 9.46824 19.5493 10.1049C19.5482 10.9584 19.2135 11.7765 18.6187 12.38C18.0238 12.9835 17.2174 13.323 16.3762 13.3241ZM16.3762 8.17342C15.9997 8.17342 15.6316 8.2867 15.3185 8.49894C15.0054 8.71118 14.7614 9.01284 14.6173 9.36578C14.4732 9.71872 14.4355 10.1071 14.5089 10.4818C14.5824 10.8564 14.7637 11.2006 15.03 11.4707C15.2962 11.7409 15.6355 11.9248 16.0048 11.9993C16.3741 12.0739 16.7569 12.0356 17.1048 11.8894C17.4527 11.7432 17.75 11.4957 17.9592 11.178C18.1684 10.8604 18.28 10.487 18.28 10.1049C18.2794 9.59288 18.0786 9.10198 17.7217 8.7399C17.3648 8.37782 16.8809 8.1741 16.3762 8.17342Z" fill="#4F5864"/>
</svg>
