<svg width="26" height="30" viewBox="0 0 26 30" fill="none" xmlns="http://www.w3.org/2000/svg">
<path d="M11.7064 19.8396C12.0606 19.4964 12.0606 18.9399 11.7064 18.5967C10.5526 17.4786 8.67526 17.4786 7.52147 18.5967C7.16726 18.9398 7.16726 19.4964 7.52147 19.8396C7.87561 20.1828 8.44991 20.1828 8.80411 19.8396C9.25065 19.4069 9.97726 19.4069 10.4238 19.8396C10.7781 20.1829 11.3523 20.1828 11.7064 19.8396Z" fill="#75B6F2"/>
<path d="M15.5762 19.8396C16.0227 19.4069 16.7493 19.4069 17.1959 19.8396C17.5501 20.1828 18.1243 20.1828 18.4785 19.8396C18.8327 19.4964 18.8327 18.9399 18.4785 18.5967C17.3247 17.4786 15.4474 17.4786 14.2936 18.5967C13.9394 18.9398 13.9394 19.4964 14.2936 19.8396C14.6478 20.1828 15.2221 20.1828 15.5762 19.8396Z" fill="#75B6F2"/>
<path d="M23.6467 15.668C25.3808 13.5867 25.3724 10.3611 23.1684 8.29277L18.6734 4.07344C18.2744 1.76484 16.1992 0 13.7056 0C12.3899 0 11.1449 0.488672 10.1999 1.37578L2.83158 8.29277C0.720744 10.2744 0.539954 13.473 2.36237 15.6656C0.99707 16.067 0 17.2975 0 18.75C0 20.5271 1.49167 21.9727 3.32558 21.9727H3.90937C4.33789 26.4681 8.25101 30 13 30C17.749 30 21.6621 26.4681 22.0906 21.9727H22.6744C24.5083 21.9727 26 20.5271 26 18.75C26 17.301 25.0078 16.0723 23.6467 15.668ZM3.86977 20.2148H3.32558C2.49177 20.2148 1.81395 19.558 1.81395 18.75C1.81395 17.942 2.49177 17.2852 3.32558 17.2852H3.86977V20.2148ZM4.09409 9.55547L11.4618 2.63848C12.067 2.0707 12.8633 1.75781 13.7056 1.75781C15.4839 1.75781 16.9302 3.15937 16.9302 4.88262V5.01445C16.9302 6 16.4423 6.93867 15.6248 7.52519L4.69935 15.368C2.68465 14.1357 2.24749 11.2887 4.09409 9.55547ZM20.3163 21.1523C20.3163 25.0617 17.0342 28.2422 13 28.2422C8.96577 28.2422 5.68372 25.0617 5.68372 21.1523V16.8492L13 11.5975L20.3163 16.8492V21.1523ZM21.3 15.3674L14.5237 10.5035L16.7047 8.93789C17.5911 8.30156 18.2296 7.3998 18.5374 6.39258L21.9059 9.55488C23.7023 11.2412 23.377 14.0941 21.3 15.3674ZM22.6744 20.2148H22.1302V17.2852H22.6744C23.5082 17.2852 24.186 17.942 24.186 18.75C24.186 19.558 23.5082 20.2148 22.6744 20.2148Z" fill="#75B6F2"/>
</svg>
