<svg width="22" height="22" viewBox="0 0 22 22" fill="none" xmlns="http://www.w3.org/2000/svg">
<path d="M2.45594 7.37073C2.80921 7.37073 3.09547 7.08439 3.09547 6.7312V4.00441L7.21447 8.12257C7.33939 8.2474 7.50303 8.30982 7.66666 8.30982C7.83038 8.30982 7.9941 8.2474 8.11894 8.12248C8.3687 7.87272 8.3687 7.46777 8.11885 7.2181L3.99968 3.09986H6.72706C7.08026 3.09986 7.36659 2.81352 7.36659 2.46033C7.36659 2.10714 7.08034 1.8208 6.72706 1.8208H2.45594C2.10266 1.8208 1.81641 2.10714 1.81641 2.46033V6.73129C1.81641 7.08439 2.10266 7.37073 2.45594 7.37073Z" fill="#4F5864"/>
<path d="M19.5447 14.6314C19.1914 14.6314 18.9051 14.9178 18.9051 15.271V17.9985L14.6584 13.7518C14.4085 13.502 14.0036 13.502 13.7538 13.7518C13.504 14.0016 13.504 14.4066 13.7538 14.6564L18.0003 18.9029H15.2731C14.9197 18.9029 14.6334 19.1893 14.6334 19.5426C14.6334 19.8959 14.9197 20.1822 15.2731 20.1822H19.5448C19.8981 20.1822 20.1845 19.8959 20.1845 19.5426V15.271C20.1844 14.9178 19.898 14.6314 19.5447 14.6314Z" fill="#4F5864"/>
<path d="M7.34194 13.7518L3.09572 17.9984V15.271C3.09572 14.9178 2.80941 14.6314 2.45606 14.6314C2.10272 14.6314 1.81641 14.9178 1.81641 15.271V19.5428C1.81641 19.896 2.10272 20.1824 2.45606 20.1824H6.72762C7.08088 20.1824 7.36727 19.896 7.36727 19.5428C7.36727 19.1895 7.08096 18.9031 6.72762 18.9031H4.00028L8.24659 14.6564C8.4964 14.4066 8.4964 14.0015 8.24651 13.7517C7.99687 13.502 7.59184 13.502 7.34194 13.7518Z" fill="#4F5864"/>
<path d="M19.5411 1.8208H15.2702C14.917 1.8208 14.6307 2.10714 14.6307 2.46033C14.6307 2.81352 14.917 3.09986 15.2702 3.09986H17.9971L13.8787 7.21853C13.629 7.46828 13.629 7.87323 13.8788 8.12299C14.0036 8.24783 14.1674 8.31025 14.331 8.31025C14.4946 8.31025 14.6583 8.24774 14.7833 8.12291L18.9017 4.00424V6.7312C18.9017 7.08439 19.1879 7.37073 19.5412 7.37073C19.8945 7.37073 20.1807 7.08439 20.1807 6.7312V2.46033C20.1806 2.10705 19.8943 1.8208 19.5411 1.8208Z" fill="#4F5864"/>
</svg>
