<svg width="28" height="24" viewBox="0 0 28 24" fill="none" xmlns="http://www.w3.org/2000/svg">
<path d="M4.81052 22.5624L4.81059 22.5628C4.87314 22.9365 5.19642 23.2 5.56245 23.2C5.60271 23.2 5.64454 23.197 5.68855 23.1893C5.68891 23.1892 5.68927 23.1891 5.68964 23.1891L12.374 22.075H15.6248L22.3088 23.189C22.3093 23.189 22.3097 23.1891 22.3102 23.1892C22.3549 23.1971 22.398 23.1999 22.4375 23.1999C22.8038 23.1999 23.1282 22.9371 23.1884 22.5621C23.258 22.1467 22.9757 21.7541 22.5613 21.6855L16.45 20.6671V19.825H25.8125C26.8533 19.825 27.7 18.9783 27.7 17.9375V2.1875C27.7 1.14665 26.8533 0.3 25.8125 0.3H2.1875C1.14665 0.3 0.3 1.14665 0.3 2.1875V17.9375C0.3 18.9784 1.14665 19.825 2.1875 19.825H11.55V20.6672L5.43757 21.6856C5.02212 21.7543 4.74194 22.1479 4.81052 22.5624ZM26.175 17.9375C26.175 18.1375 26.0125 18.3 25.8125 18.3H2.1875C1.98746 18.3 1.82498 18.1375 1.82498 17.9375V2.1875C1.82498 1.98746 1.98746 1.82498 2.1875 1.82498H25.8125C26.0125 1.82498 26.175 1.98746 26.175 2.1875V17.9375Z" fill="#75B6F2" stroke="#75B6F2" stroke-width="0.4"/>
</svg>
