<svg width="30" height="22" viewBox="0 0 30 22" fill="none" xmlns="http://www.w3.org/2000/svg">
<path d="M1.117 8.04836L1.05076 8.12328C1.45004 8.47631 2.07122 8.45276 2.44024 8.06958L2.44024 8.06958C5.66642 4.71931 10.2439 2.79691 14.9987 2.79691C19.7536 2.79691 24.331 4.71931 27.5572 8.06958L27.5572 8.06959C27.7519 8.2717 28.0163 8.37326 28.2802 8.37326C28.5178 8.37326 28.7571 8.29089 28.9466 8.12328C29.3484 7.76807 29.374 7.16567 29.0027 6.78009L28.9356 6.84473L29.0027 6.78008C27.2359 4.94533 25.1394 3.50012 22.772 2.48468C20.3203 1.43312 17.7049 0.9 14.9987 0.9C12.2926 0.9 9.67717 1.43312 7.22542 2.48468L7.26484 2.57658L7.22542 2.48468C4.85798 3.50012 2.76153 4.94533 0.994724 6.78008C0.62337 7.16568 0.649035 7.76802 1.05076 8.12327L1.117 8.04836ZM5.00262 10.6453L5.07592 10.7134L5.00262 10.6453C4.63864 11.0376 4.67601 11.6394 5.08439 11.9873L5.08441 11.9873C5.27225 12.1473 5.50561 12.2256 5.73727 12.2256C6.0072 12.2256 6.27747 12.1193 6.47259 11.909C8.63647 9.57701 11.744 8.23867 14.9987 8.23867C18.2534 8.23862 21.361 9.57695 23.5249 11.9089C23.8866 12.2987 24.5072 12.3331 24.9131 11.9873C25.3215 11.6393 25.3588 11.0375 24.9948 10.6453C22.4564 7.90969 18.8129 6.34171 14.9987 6.34171C11.1845 6.34171 7.54103 7.90975 5.00262 10.6453ZM20.8475 15.8776L20.789 15.8016L20.8475 15.8776C21.2729 15.5499 21.342 14.9507 20.9985 14.5412C19.528 12.788 17.3407 11.7834 14.9987 11.7834C12.6568 11.7834 10.4696 12.788 8.9989 14.5412C8.65541 14.9507 8.72442 15.5498 9.14991 15.8776C9.57292 16.2034 10.1911 16.1397 10.5324 15.7329C11.6261 14.429 13.2536 13.6803 14.9987 13.6803C16.7439 13.6803 18.3714 14.429 19.4651 15.7328C19.6603 15.9657 19.9459 16.0855 20.2323 16.0855C20.4479 16.0855 20.6656 16.0177 20.8475 15.8776ZM17.0163 19.1626C17.0163 18.0902 16.1072 17.2251 14.9987 17.2251C13.8902 17.2251 12.9812 18.0902 12.9812 19.1626C12.9812 20.2349 13.8902 21.1 14.9987 21.1C16.1073 21.1 17.0163 20.2349 17.0163 19.1626ZM14.952 19.1626C14.952 19.1456 14.9704 19.122 14.9987 19.122C15.027 19.122 15.0454 19.1456 15.0454 19.1626C15.0454 19.1796 15.0271 19.2031 14.9987 19.2031C14.9703 19.2031 14.952 19.1795 14.952 19.1626Z" fill="#75B6F2" stroke="#75B6F2" stroke-width="0.2"/>
</svg>
