<svg width="38" height="32" viewBox="0 0 38 32" fill="none" xmlns="http://www.w3.org/2000/svg">
<path d="M23.3395 25.4184C25.7634 24.5863 27.5617 23.3002 28.7346 21.5603C29.9074 19.8203 30.4938 17.74 30.4938 15.3191H23.3395V0H38V15.3191C38 17.513 37.6091 19.5177 36.8272 21.3333C36.0453 23.0733 34.9897 24.6619 33.6605 26.0993C32.3313 27.461 30.7675 28.6714 28.9691 29.7305C27.249 30.7139 25.3724 31.4704 23.3395 32V25.4184ZM0 25.4184C2.42387 24.5863 4.22222 23.3002 5.39506 21.5603C6.5679 19.8203 7.15432 17.74 7.15432 15.3191H0V0H14.6605V15.3191C14.6605 17.513 14.2695 19.5177 13.4877 21.3333C12.7058 23.0733 11.6502 24.6619 10.321 26.0993C8.99177 27.461 7.42798 28.6714 5.62963 29.7305C3.90946 30.7139 2.03292 31.4704 0 32V25.4184Z" fill="white"/>
</svg>
