<svg width="38" height="32" viewBox="0 0 38 32" fill="none" xmlns="http://www.w3.org/2000/svg">
<path d="M14.6605 6.58156C12.2366 7.41371 10.4383 8.69977 9.26543 10.4397C8.09259 12.1797 7.50617 14.26 7.50617 16.6809H14.6605V32H0V16.6809C0 14.487 0.390949 12.4823 1.17284 10.6667C1.95473 8.92671 3.01029 7.33806 4.33951 5.90071C5.66872 4.53901 7.23251 3.32861 9.03087 2.2695C10.751 1.28605 12.6276 0.529552 14.6605 0V6.58156ZM38 6.58156C35.5761 7.41371 33.7778 8.69977 32.6049 10.4397C31.4321 12.1797 30.8457 14.26 30.8457 16.6809H38V32H23.3395V16.6809C23.3395 14.487 23.7305 12.4823 24.5123 10.6667C25.2942 8.92671 26.3498 7.33806 27.679 5.90071C29.0082 4.53901 30.572 3.32861 32.3704 2.2695C34.0905 1.28605 35.9671 0.529552 38 0V6.58156Z" fill="white"/>
</svg>
