<svg width="26" height="22" viewBox="0 0 26 22" fill="none" xmlns="http://www.w3.org/2000/svg">
<path d="M23.1941 2.93382C20.5528 0.29325 16.256 0.29325 13.6154 2.93382L13.0021 3.54679L12.3891 2.93382C9.74857 0.292893 5.45139 0.292893 2.81082 2.93382C0.223861 5.52078 0.207063 9.62138 2.77186 12.4725C5.11113 15.0719 12.0103 20.688 12.303 20.9257C12.5017 21.0872 12.7408 21.1658 12.9785 21.1658C12.9864 21.1658 12.9942 21.1658 13.0017 21.1655C13.2477 21.1769 13.4953 21.0926 13.7005 20.9257C13.9932 20.688 20.8931 15.0719 23.2331 12.4721C25.7975 9.62138 25.7807 5.52078 23.1941 2.93382ZM21.639 11.0378C19.8151 13.064 14.8017 17.2429 13.0017 18.7258C11.2018 17.2432 6.18945 13.0647 4.36593 11.0382C2.57671 9.04952 2.55992 6.21738 4.32697 4.45033C5.22944 3.54821 6.41462 3.0968 7.5998 3.0968C8.78499 3.0968 9.97017 3.54786 10.8726 4.45033L12.2208 5.79849C12.3813 5.95897 12.5836 6.05476 12.7959 6.08835C13.1404 6.16234 13.5143 6.06619 13.7823 5.79885L15.1312 4.45033C16.9365 2.64575 19.873 2.6461 21.6772 4.45033C23.4443 6.21738 23.4275 9.04952 21.639 11.0378Z" fill="#A0A7AF"/>
</svg>
