<svg width="32" height="28" viewBox="0 0 32 28" fill="none" xmlns="http://www.w3.org/2000/svg">
<path d="M29.4291 3.28953C25.9488 -0.189788 20.2872 -0.189788 16.8079 3.28953L15.9997 4.09719L15.1921 3.28953C11.7127 -0.190259 6.05061 -0.190259 2.5713 3.28953C-0.837377 6.6982 -0.859511 12.1013 2.51996 15.858C5.60228 19.2832 14.6929 26.6831 15.0786 26.9963C15.3404 27.2091 15.6555 27.3127 15.9686 27.3127C15.979 27.3127 15.9894 27.3127 15.9993 27.3123C16.3233 27.3273 16.6496 27.2162 16.9199 26.9963C17.3056 26.6831 26.3972 19.2832 29.4804 15.8575C32.8594 12.1013 32.8373 6.6982 29.4291 3.28953Z" fill="#E53D18"/>
</svg>
